<?xml version="1.0" encoding="UTF-8"?>
<svg xmlns="http://www.w3.org/2000/svg" xmlns:xlink="http://www.w3.org/1999/xlink" viewBox="0 0 100 100" width="100px" height="100px">
<g id="surface79456438">
<path style="fill-rule:nonzero;fill:rgb(20.392157%,59.607846%,85.882354%);fill-opacity:1;stroke-width:10;stroke-linecap:butt;stroke-linejoin:round;stroke:rgb(20.392157%,59.607846%,85.882354%);stroke-opacity:1;stroke-miterlimit:10;" d="M 150.500001 20.639716 C 150.976357 20.639716 151.360286 21.023644 151.360286 21.5 L 151.360286 44.720569 C 151.360286 46.611773 149.810352 48.161707 147.919148 48.161707 C 146.027944 48.161707 144.47801 46.611773 144.47801 44.720569 L 144.47801 32.377976 L 93.621694 83.276952 C 92.277944 84.613592 90.081019 84.613592 88.751489 83.269842 L 88.744379 83.269842 C 88.744379 83.269842 88.744379 83.269842 88.744379 83.262732 C 87.414849 81.926092 87.414849 79.743387 88.751489 78.406747 L 139.636244 27.521991 L 127.279432 27.521991 C 125.388228 27.521991 123.838295 25.972057 123.838295 24.080853 C 123.838295 22.18965 125.388228 20.639716 127.279432 20.639716 Z M 125.558863 24.080853 C 125.558863 25.040675 126.319611 25.801422 127.279432 25.801422 L 141.712303 25.801422 C 142.060682 25.801422 142.373513 26.007606 142.508599 26.327546 C 142.636575 26.654597 142.565477 27.024306 142.316635 27.266039 L 89.967263 79.62252 C 89.284723 80.30506 89.284723 81.371528 89.960153 82.054068 L 89.967263 82.054068 C 89.967263 82.054068 89.967263 82.061178 89.967263 82.061178 C 90.649802 82.743718 91.72338 82.743718 92.40592 82.061178 L 144.733963 29.697586 C 144.975696 29.448744 145.345405 29.377646 145.672455 29.512732 C 145.992395 29.640708 146.198579 29.960648 146.198579 30.301918 L 146.198579 44.720569 C 146.198579 45.680391 146.959326 46.441138 147.919148 46.441138 C 148.878969 46.441138 149.639717 45.680391 149.639717 44.720569 L 149.639717 22.360285 L 127.279432 22.360285 C 126.319611 22.360285 125.558863 23.121032 125.558863 24.080853 Z M 118.676588 32.676588 C 120.688658 32.676588 122.64385 32.968089 124.485285 33.508433 C 125.075398 33.679068 125.530424 34.155424 125.67262 34.752646 C 125.821926 35.349868 125.637071 35.975529 125.189154 36.402117 C 124.741238 36.828704 124.108467 36.985119 123.518354 36.807375 C 121.98264 36.359458 120.361608 36.117725 118.676588 36.117725 L 49.882275 36.117725 C 40.362269 36.117725 32.676588 43.803406 32.676588 53.323413 L 32.676588 122.117726 C 32.676588 131.637732 40.362269 139.323414 49.882275 139.323414 L 118.676588 139.323414 C 128.196595 139.323414 135.882276 131.637732 135.882276 122.117726 L 135.882276 53.323413 C 135.882276 51.695272 135.654763 50.131118 135.235285 48.652282 C 135.07176 48.06217 135.235285 47.422289 135.661873 46.981482 C 136.09557 46.540675 136.721231 46.36293 137.318453 46.519346 C 137.915676 46.668651 138.384922 47.130787 138.548447 47.7209 C 139.053242 49.498347 139.323414 51.382441 139.323414 53.323413 L 139.323414 122.117726 C 139.323414 133.500497 130.059359 142.757442 118.676588 142.757442 L 49.882275 142.757442 C 38.499504 142.757442 29.24256 133.500497 29.24256 122.117726 L 29.24256 53.323413 C 29.24256 41.940642 38.499504 32.676588 49.882275 32.676588 Z M 110.941138 41.279432 C 111.246859 41.272322 111.538361 41.435847 111.694776 41.706019 C 111.851191 41.976191 111.851191 42.303241 111.694776 42.573413 C 111.538361 42.843585 111.246859 43.00711 110.941138 43 L 49.882275 43 C 44.187335 43 39.558863 47.628473 39.558863 53.323413 L 39.558863 122.117726 C 39.558863 127.812666 44.187335 132.441139 49.882275 132.441139 L 118.676588 132.441139 C 124.371529 132.441139 129.000001 127.812666 129.000001 122.117726 L 129.000001 91.161707 C 128.992891 90.848876 129.156416 90.564485 129.426588 90.408069 C 129.69676 90.251654 130.02381 90.251654 130.293982 90.408069 C 130.564154 90.564485 130.72768 90.848876 130.72057 91.161707 L 130.72057 122.117726 C 130.72057 128.744049 125.302911 134.161707 118.676588 134.161707 L 49.882275 134.161707 C 43.255953 134.161707 37.838294 128.744049 37.838294 122.117726 L 37.838294 53.323413 C 37.838294 46.69709 43.255953 41.279432 49.882275 41.279432 Z M 130.471727 70.756614 C 130.635252 70.920139 130.72057 71.147653 130.72057 71.382276 L 130.72057 74.823413 C 130.72768 75.129134 130.564154 75.420635 130.293982 75.577051 C 130.02381 75.733466 129.69676 75.733466 129.426588 75.577051 C 129.156416 75.420635 128.992891 75.129134 129.000001 74.823413 L 129.000001 71.382276 C 128.992891 71.154762 129.085318 70.934359 129.241734 70.770834 C 129.398149 70.607309 129.618553 70.507772 129.846066 70.507772 C 130.080689 70.500662 130.301092 70.593089 130.471727 70.756614 Z M 130.471727 77.638889 C 130.635252 77.802415 130.72057 78.029928 130.72057 78.257441 L 130.72057 85.139716 C 130.72768 85.452547 130.564154 85.736938 130.293982 85.893354 C 130.02381 86.049769 129.69676 86.049769 129.426588 85.893354 C 129.156416 85.736938 128.992891 85.452547 129.000001 85.139716 L 129.000001 78.257441 C 128.992891 78.029928 129.085318 77.809524 129.241734 77.645999 C 129.398149 77.482474 129.618553 77.390047 129.846066 77.390047 C 130.080689 77.382937 130.301092 77.475364 130.471727 77.638889 Z M 130.471727 77.638889 " transform="matrix(0.549419,0,0,0.549419,2.75,2.75)"/>
<path style=" stroke:none;fill-rule:nonzero;fill:rgb(20.392157%,59.607846%,85.882354%);fill-opacity:1;" d="M 72.679688 14.089844 C 71.640625 14.089844 70.789062 14.941406 70.789062 15.980469 C 70.789062 17.019531 71.640625 17.871094 72.679688 17.871094 L 79.46875 17.871094 L 51.511719 45.828125 C 50.777344 46.5625 50.777344 47.761719 51.507812 48.496094 C 51.507812 48.5 51.507812 48.5 51.507812 48.5 L 51.511719 48.5 C 52.242188 49.238281 53.449219 49.238281 54.1875 48.503906 L 82.128906 20.539062 L 82.128906 27.320312 C 82.128906 28.359375 82.980469 29.210938 84.019531 29.210938 C 85.058594 29.210938 85.910156 28.359375 85.910156 27.320312 L 85.910156 14.5625 C 85.910156 14.300781 85.699219 14.089844 85.4375 14.089844 Z M 72.679688 15.035156 L 84.964844 15.035156 L 84.964844 27.320312 C 84.964844 27.847656 84.546875 28.265625 84.019531 28.265625 C 83.492188 28.265625 83.074219 27.847656 83.074219 27.320312 L 83.074219 19.398438 C 83.074219 19.210938 82.960938 19.035156 82.785156 18.964844 C 82.605469 18.890625 82.402344 18.929688 82.269531 19.066406 L 53.519531 47.835938 C 53.144531 48.210938 52.554688 48.210938 52.179688 47.835938 C 52.179688 47.835938 52.179688 47.832031 52.179688 47.832031 L 52.175781 47.832031 C 51.804688 47.457031 51.804688 46.871094 52.179688 46.496094 L 80.941406 17.730469 C 81.078125 17.597656 81.117188 17.394531 81.046875 17.214844 C 80.972656 17.039062 80.800781 16.925781 80.609375 16.925781 L 72.679688 16.925781 C 72.152344 16.925781 71.734375 16.507812 71.734375 15.980469 C 71.734375 15.453125 72.152344 15.035156 72.679688 15.035156 Z M 30.15625 20.703125 C 23.902344 20.703125 18.816406 25.792969 18.816406 32.046875 L 18.816406 69.84375 C 18.816406 76.097656 23.902344 81.183594 30.15625 81.183594 L 67.953125 81.183594 C 74.207031 81.183594 79.296875 76.097656 79.296875 69.84375 L 79.296875 32.046875 C 79.296875 30.980469 79.148438 29.945312 78.871094 28.96875 C 78.78125 28.644531 78.523438 28.390625 78.195312 28.308594 C 77.867188 28.222656 77.523438 28.320312 77.285156 28.5625 C 77.050781 28.804688 76.960938 29.15625 77.050781 29.480469 C 77.28125 30.292969 77.40625 31.152344 77.40625 32.046875 L 77.40625 69.84375 C 77.40625 75.074219 73.183594 79.296875 67.953125 79.296875 L 30.15625 79.296875 C 24.925781 79.296875 20.703125 75.074219 20.703125 69.84375 L 20.703125 32.046875 C 20.703125 26.816406 24.925781 22.59375 30.15625 22.59375 L 67.953125 22.59375 C 68.878906 22.59375 69.769531 22.726562 70.613281 22.972656 C 70.9375 23.070312 71.285156 22.984375 71.53125 22.75 C 71.777344 22.515625 71.878906 22.171875 71.796875 21.84375 C 71.71875 21.515625 71.46875 21.253906 71.144531 21.160156 C 70.132812 20.863281 69.058594 20.703125 67.953125 20.703125 Z M 30.15625 25.429688 C 26.515625 25.429688 23.539062 28.40625 23.539062 32.046875 L 23.539062 69.84375 C 23.539062 73.484375 26.515625 76.460938 30.15625 76.460938 L 67.953125 76.460938 C 71.59375 76.460938 74.570312 73.484375 74.570312 69.84375 L 74.570312 52.835938 C 74.574219 52.664062 74.484375 52.507812 74.335938 52.421875 C 74.1875 52.335938 74.007812 52.335938 73.859375 52.421875 C 73.710938 52.507812 73.621094 52.664062 73.625 52.835938 L 73.625 69.84375 C 73.625 72.972656 71.082031 75.515625 67.953125 75.515625 L 30.15625 75.515625 C 27.027344 75.515625 24.484375 72.972656 24.484375 69.84375 L 24.484375 32.046875 C 24.484375 28.917969 27.027344 26.375 30.15625 26.375 L 63.703125 26.375 C 63.871094 26.378906 64.03125 26.289062 64.117188 26.140625 C 64.203125 25.992188 64.203125 25.8125 64.117188 25.664062 C 64.03125 25.515625 63.871094 25.425781 63.703125 25.429688 Z M 74.089844 41.488281 C 73.964844 41.488281 73.84375 41.542969 73.757812 41.632812 C 73.671875 41.722656 73.621094 41.84375 73.625 41.96875 L 73.625 43.859375 C 73.621094 44.027344 73.710938 44.1875 73.859375 44.273438 C 74.007812 44.359375 74.1875 44.359375 74.335938 44.273438 C 74.484375 44.1875 74.574219 44.027344 74.570312 43.859375 L 74.570312 41.96875 C 74.570312 41.839844 74.523438 41.714844 74.433594 41.625 C 74.339844 41.535156 74.21875 41.484375 74.089844 41.488281 Z M 74.089844 45.269531 C 73.964844 45.269531 73.84375 45.320312 73.757812 45.410156 C 73.671875 45.5 73.621094 45.621094 73.625 45.746094 L 73.625 49.527344 C 73.621094 49.699219 73.710938 49.855469 73.859375 49.941406 C 74.007812 50.027344 74.1875 50.027344 74.335938 49.941406 C 74.484375 49.855469 74.574219 49.699219 74.570312 49.527344 L 74.570312 45.746094 C 74.570312 45.621094 74.523438 45.496094 74.433594 45.40625 C 74.339844 45.316406 74.21875 45.265625 74.089844 45.269531 Z M 74.089844 45.269531 "/>
</g>
</svg>
